<svg xmlns="http://www.w3.org/2000/svg" width="17.997" height="17.998"><g data-name="Group 5"><path d="M8.999 1.621c2.403 0 2.687.01 3.636.053.877.04 1.354.186 1.67.31.421.163.72.358 1.036.673.314.315.51.614.673 1.034.123.318.27.794.31 1.672.043.948.052 1.233.052 3.636s-.01 2.687-.052 3.636c-.04.877-.187 1.354-.31 1.671-.164.42-.359.72-.673 1.035-.315.315-.615.51-1.035.673-.317.123-.794.27-1.671.31-.949.043-1.233.052-3.636.052s-2.688-.009-3.637-.052c-.877-.04-1.354-.187-1.67-.31a2.787 2.787 0 0 1-1.035-.673 2.793 2.793 0 0 1-.674-1.035c-.123-.317-.27-.794-.31-1.67-.043-.95-.052-1.234-.052-3.637s.01-2.688.053-3.636c.04-.878.186-1.354.31-1.672.163-.42.358-.72.673-1.034.315-.315.614-.51 1.034-.673.317-.124.794-.27 1.671-.31.95-.044 1.234-.053 3.637-.053m0-1.621c-2.444 0-2.75.01-3.71.054C4.33.098 3.675.25 3.103.472A4.409 4.409 0 0 0 1.51 1.51c-.5.5-.808 1.002-1.038 1.594C.25 3.677.098 4.331.054 5.29.01 6.249 0 6.555 0 8.999s.01 2.75.054 3.71c.044.958.196 1.612.418 2.184a4.41 4.41 0 0 0 1.038 1.594c.5.5 1.002.808 1.594 1.038.572.223 1.227.375 2.184.418.96.044 1.267.055 3.71.055 2.444 0 2.751-.01 3.71-.055.959-.043 1.613-.195 2.185-.418a4.414 4.414 0 0 0 1.594-1.038c.5-.5.808-1.002 1.038-1.594.223-.572.375-1.226.418-2.184.044-.96.054-1.266.054-3.71s-.01-2.75-.054-3.71c-.043-.958-.195-1.612-.418-2.185a4.408 4.408 0 0 0-1.038-1.594A4.41 4.41 0 0 0 14.893.472C14.321.25 13.667.098 12.71.054 11.749.01 11.442 0 8.999 0Z" fill="#fff" fill-rule="evenodd" data-name="Path 4"/><path d="M8.999 4.378a4.621 4.621 0 1 0 0 9.242 4.621 4.621 0 0 0 0-9.242Zm0 7.62a3 3 0 1 1 0-5.999 3 3 0 0 1 0 6Z" fill="#fff" fill-rule="evenodd" data-name="Path 5"/><path d="M12.722 4.095a1.08 1.08 0 1 1 0 .1z" fill="#fff" fill-rule="evenodd" data-name="Ellipse 1"/></g></svg>