<svg xmlns="http://www.w3.org/2000/svg" width="17.968" height="17.998" viewBox="-5208.736 -8579 17.968 17.998"><path d="M-5199.745-8579a8.991 8.991 0 0 0-8.991 8.992 8.995 8.995 0 0 0 5.713 8.377c-.081-.71-.148-1.806.03-2.583.162-.703 1.05-4.47 1.05-4.47s-.266-.54-.266-1.332c0-1.25.725-2.183 1.628-2.183.77 0 1.14.577 1.14 1.266 0 .77-.489 1.924-.748 2.997-.214.895.452 1.628 1.333 1.628 1.598 0 2.826-1.687 2.826-4.115 0-2.153-1.546-3.655-3.76-3.655-2.56 0-4.062 1.916-4.062 3.9 0 .77.296 1.598.666 2.05.074.088.082.17.06.258-.067.282-.222.896-.252 1.022-.037.163-.133.2-.303.118-1.126-.525-1.828-2.16-1.828-3.486 0-2.834 2.057-5.439 5.942-5.439 3.116 0 5.543 2.22 5.543 5.195 0 3.101-1.954 5.595-4.662 5.595-.91 0-1.77-.474-2.058-1.036l-.562 2.139c-.2.784-.748 1.761-1.118 2.36.844.26 1.732.4 2.665.4a8.992 8.992 0 0 0 8.991-8.991 8.973 8.973 0 0 0-8.977-9.007Z" fill="#fff" fill-rule="evenodd" data-name="Path 23"/></svg>