<svg xmlns="http://www.w3.org/2000/svg" width="15.728" height="17.998" viewBox="-5239.976 -8579 15.728 17.998"><path d="M-5224.284-8574.617c0-.081-.002-.085-.087-.084a3.823 3.823 0 0 1-.608-.053c-.731-.11-3.102-1.354-3.503-3.388-.008-.04-.097-.544-.096-.76 0-.095-.001-.095-.096-.097H-5231.523c-.187 0-.161-.023-.161.164v12.07c0 .15-.004.3-.03.447-.14.778-.539 1.388-1.214 1.804a2.547 2.547 0 0 1-1.893.33c-.212-.042-.412-.122-.611-.201l-.049-.044c-.067-.057-.14-.103-.213-.153-.859-.594-1.266-1.42-1.142-2.453.126-1.047.729-1.758 1.722-2.124.295-.11.607-.155.924-.138.204.011.407.037.605.093.068.02.105-.004.108-.077.002-.026.003-.051.003-.077 0-.722-.027-2.3-.031-2.303.001-.208.001-.416.005-.624.001-.06-.029-.07-.08-.076a5.863 5.863 0 0 0-1.124-.025 5.674 5.674 0 0 0-3.573 1.616 5.635 5.635 0 0 0-1.201 1.723 5.59 5.59 0 0 0-.486 1.953c-.02.294-.015.59.012.885a5.659 5.659 0 0 0 2.165 3.968c.094.074.184.156.296.204l.14.125a3 3 0 0 0 .476.29c1.031.51 2.117.717 3.262.577 1.485-.18 2.723-.84 3.697-1.973.917-1.068 1.362-2.32 1.37-3.721.012-2.004.003-4.008.005-6.011 0-.048-.028-.116.025-.14.04-.019.082.036.12.061.747.49 1.55.844 2.422 1.043a6.855 6.855 0 0 0 1.54.186c.164 0 .186-.008.186-.171.001-.712-.036-2.657-.036-2.846Z" fill="#fff" fill-rule="evenodd" data-name="Path 24"/></svg>