<svg xmlns="http://www.w3.org/2000/svg" width="50" height="50" viewBox="1820.001 40 50 50"><g data-name="Group 5511"><path d="M1866.82 44.19c-2.29-2.566-5.611-4.19-9.32-4.19h-4.312v13.276l13.631-9.087Z" fill="#0d2764" fill-rule="evenodd" data-name="Path 27777"/><path d="M1836.813 40h-4.312c-3.709 0-7.03 1.625-9.32 4.19l13.632 9.087V40.001Z" fill="#0d2764" fill-rule="evenodd" data-name="Path 27778"/><path d="M1870 56.815v-2.162l-3.243 2.162H1870Z" fill="#0d2764" fill-rule="evenodd" data-name="Path 27779"/><path d="M1870 75.4V73.19h-3.312L1870 75.4Z" fill="#0d2764" fill-rule="evenodd" data-name="Path 27780"/><path d="M1820 73.191V75.4l3.313-2.208H1820Z" fill="#0d2764" fill-rule="evenodd" data-name="Path 27781"/><path d="M1853.188 90h4.313c3.694 0 7.003-1.612 9.291-4.16l-13.604-9.067V90Z" fill="#0d2764" fill-rule="evenodd" data-name="Path 27782"/><path d="M1823.208 85.84c2.289 2.548 5.598 4.16 9.293 4.16h4.312V76.772l-13.605 9.068Z" fill="#0d2764" fill-rule="evenodd" data-name="Path 27783"/><path d="M1820 54.653v2.162h3.244l-3.243-2.162Z" fill="#0d2764" fill-rule="evenodd" data-name="Path 27784"/><path d="M1840.223 40h-3.41v13.277l-13.632-9.086a12.46 12.46 0 0 0-2.6 4.54l12.153 8.084h-6.483l-6.25-4.158v1.996l3.244 2.162H1820v3.41h20.222V40.001Z" fill="#fff" fill-rule="evenodd" data-name="Path 27785"/><path d="M1849.776 90h3.412V76.773l13.604 9.067a12.466 12.466 0 0 0 2.658-4.67l-11.999-7.979h6.482l6.067 4.034V75.4l-3.312-2.209H1870v-3.417h-20.224V90Z" fill="#fff" fill-rule="evenodd" data-name="Path 27786"/><path d="M1853.188 56.815v-1.633l14.633-9.73a12.588 12.588 0 0 0-1.002-1.263l-13.63 9.087V40.001h-3.413v20.224H1870v-3.41h-3.243l3.243-2.163v-2.151a12.48 12.48 0 0 0-.59-3.795l-12.188 8.109h-4.034Z" fill="#fff" fill-rule="evenodd" data-name="Path 27787"/><path d="M1820 69.774v3.417h3.313L1820 75.399V77.5c0 1.28.194 2.512.551 3.675l12.007-7.984h4.254v1.476l-14.703 9.78c.33.493.703.953 1.098 1.393l13.605-9.068V90h3.41V69.774H1820Z" fill="#fff" fill-rule="evenodd" data-name="Path 27788"/><path d="M1849.776 40h-9.553v20.226H1820v9.548h20.222V90h9.553V69.774H1870v-9.548h-20.225V40Z" fill="#c20320" fill-rule="evenodd" data-name="Path 27789"/><path d="m1857.451 73.191 12 7.98c.356-1.161.55-2.393.55-3.67v-.276l-6.068-4.034h-6.482Z" fill="#c20320" fill-rule="evenodd" data-name="Path 27790"/><path d="M1853.188 55.182v1.633h4.034l12.188-8.109a12.463 12.463 0 0 0-1.589-3.255l-14.633 9.73Z" fill="#c20320" fill-rule="evenodd" data-name="Path 27791"/><path d="M1836.813 73.191h-4.254l-12.007 7.984c.36 1.173.889 2.273 1.558 3.272l14.703-9.78v-1.476Z" fill="#c20320" fill-rule="evenodd" data-name="Path 27792"/><path d="m1832.734 56.815-12.153-8.083a12.49 12.49 0 0 0-.58 3.768v.157l6.25 4.158h6.483Z" fill="#c20320" fill-rule="evenodd" data-name="Path 27793"/></g></svg>