<svg xmlns="http://www.w3.org/2000/svg" width="20.81" height="17.998"><path d="M20.8 4.163c-.093 2.026-1.508 4.8-4.244 8.32-2.83 3.676-5.224 5.515-7.181 5.515-1.214 0-2.24-1.12-3.079-3.359L4.616 8.48c-.622-2.238-1.29-3.358-2.004-3.358-.156 0-.7.327-1.634.98L0 4.84c1.027-.903 2.04-1.805 3.037-2.708C4.407.95 5.435.327 6.12.264c1.618-.155 2.616.951 2.99 3.32.404 2.557.684 4.147.84 4.77.468 2.12.982 3.18 1.543 3.18.435 0 1.09-.688 1.962-2.065.871-1.375 1.338-2.421 1.4-3.141.125-1.187-.342-1.782-1.4-1.782-.498 0-1.012.114-1.54.34 1.023-3.349 2.977-4.975 5.86-4.882 2.139.062 3.147 1.449 3.024 4.16Z" fill="#fff" fill-rule="evenodd" data-name="Path 6"/></svg>