<svg xmlns="http://www.w3.org/2000/svg" width="22.885" height="90" viewBox="1883.998 496 22.885 90"><g data-name="Group 5916"><g data-name="Group 5915" transform="rotate(90 705.441 1201.441)" clip-path="url(&quot;#a&quot;)"><path d="M27.83 18.99v-.479c-.064-.841-.217-1.603-.48-2.264-.527-1.32-1.42-2.562-2.178-3.876-1.404-2.436-2.985-5.252-4.398-7.71C19.61 2.64 18.526.043 15.634.005c-3.004-.045-4.004 2.61-5.096 4.528C7.078 10.618 0 22.867 0 22.867h3.267S10.017 10.92 13.37 4.881c.429-.772 1.28-1.788 2.264-1.788 1.499 0 2.248 1.781 2.918 3.007 1.803 3.277 3.537 6.414 5.226 9.582.533.994 1.61 2.305.873 3.658-.483.883-1.454.825-2.832.825 0 .026-13.326 0-13.326 0v2.702H20.6s2.85.086 4.007-.13c1.911-.359 2.95-1.844 3.222-3.746" fill="#fff" fill-rule="evenodd" data-name="Path 35780"/><path d="M22.927 3.893v.48c.064.841.216 1.603.48 2.264.527 1.32 1.419 2.562 2.178 3.876 1.403 2.439 2.984 5.252 4.397 7.71 1.165 2.022 2.248 4.619 5.14 4.657 3.004.045 4.004-2.61 5.096-4.527C43.68 12.266 50.756.017 50.756.017H47.49s-6.75 11.947-10.103 17.986c-.428.772-1.28 1.788-2.264 1.788-1.498 0-2.248-1.781-2.917-3.007-1.804-3.277-3.537-6.414-5.227-9.582-.533-.994-1.61-2.305-.873-3.658.483-.883 1.454-.825 2.832-.825 0-.026 13.326 0 13.326 0V.017H30.157s-2.852-.086-4.007.13c-1.912.359-2.95 1.844-3.223 3.746" fill="#fff" fill-rule="evenodd" data-name="Path 35781"/><path d="M67.073 18.99v-.479c-.064-.841-.216-1.603-.48-2.264-.527-1.32-1.419-2.562-2.178-3.876-1.403-2.436-2.984-5.252-4.397-7.71C58.853 2.64 57.77.043 54.878.005c-3.004-.045-4.004 2.61-5.096 4.528-3.461 6.086-10.538 18.335-10.538 18.335h3.267S49.26 10.92 52.614 4.881c.428-.772 1.28-1.788 2.264-1.788 1.498 0 2.248 1.781 2.917 3.007 1.804 3.277 3.537 6.414 5.227 9.582.533.994 1.61 2.305.873 3.658-.483.883-1.454.825-2.832.825 0 .026-13.326 0-13.326 0v2.702h12.106s2.852.086 4.007-.13c1.912-.359 2.95-1.844 3.223-3.746" fill="#fff" fill-rule="evenodd" data-name="Path 35782"/><path d="M62.17 3.893v.48c.064.841.217 1.603.48 2.264.527 1.32 1.42 2.562 2.178 3.876 1.404 2.439 2.985 5.252 4.398 7.71 1.165 2.022 2.248 4.619 5.14 4.657 3.004.045 4.004-2.61 5.096-4.527C82.922 12.266 90 .017 90 .017h-3.267s-6.75 11.947-10.103 17.986c-.429.772-1.28 1.788-2.264 1.788-1.499 0-2.248-1.781-2.918-3.007-1.803-3.277-3.537-6.414-5.226-9.582-.533-.994-1.61-2.305-.873-3.658.482-.883 1.454-.825 2.832-.825 0-.026 13.326 0 13.326 0V.017H69.4s-2.85-.086-4.007.13c-1.911.359-2.95 1.844-3.222 3.746" fill="#fff" fill-rule="evenodd" data-name="Path 35783"/></g></g><defs><clipPath id="a"><path d="M0 0h90v22.883H0V0z" data-name="Rectangle 2351"/></clipPath></defs></svg>