<svg xmlns="http://www.w3.org/2000/svg" width="147.169" height="50" viewBox="50 40 147.169 50"><g data-name="Group 5945"><g data-name="Group 5944" transform="translate(50 40)" clip-path="url(&quot;#a&quot;)"><path d="M37.032 0v1.237c0 .494-.165.977-.494 1.448L4.806 46.997H36.75V50H0v-1.307c0-.448.142-.872.424-1.272L32.226 3.004H.919V0h36.113Z" fill-rule="evenodd" data-name="Path 28412"/><path d="M80.93 0v3.075H63.37V50h-3.606V3.075H42.096V0H80.93Z" fill-rule="evenodd" data-name="Path 28413"/><path d="M85.994 24.028h22.06v3.003h-22.06v-3.003z" fill-rule="evenodd" data-name="Rectangle 2274"/><path d="M85.994 0h25.593v3.004H85.994V0z" fill-rule="evenodd" data-name="Rectangle 2275"/><path d="M129.961 28.375a5.733 5.733 0 0 0-1.52-1.414c2.19-.235 4.158-.736 5.902-1.501 1.743-.766 3.232-1.743 4.47-2.933a12.272 12.272 0 0 0 2.844-4.152c.66-1.578.99-3.321.99-5.23 0-4.312-1.426-7.58-4.277-9.806C135.52 1.114 131.21 0 125.438 0h-8.788v2.863h8.788c4.452 0 7.844.86 10.176 2.58 2.333 1.72 3.499 4.358 3.499 7.916 0 1.743-.318 3.31-.954 4.699a9.841 9.841 0 0 1-2.774 3.569c-1.214.989-2.697 1.749-4.453 2.279-1.755.53-3.739.795-5.953.795h-8.329v2.685h6.173c.966 0 1.679.107 2.137.319.46.211.89.577 1.29 1.095l16.007 20.283c.26.33.525.565.796.707.27.14.595.21.97.21h3.146l-17.208-21.624Z" fill-rule="evenodd" data-name="Path 28414"/></g></g><defs><clipPath id="a"><path d="M0 0h147.169v50H0V0z" data-name="Rectangle 2276"/></clipPath></defs></svg>